<?xml version="1.0" encoding="UTF-8" standalone="no"?><svg width="32" height="39" viewBox="0 0 32 39" fill="none" xmlns="http://www.w3.org/2000/svg">
<g clip-path="url(#clip0_785_431)">
<path d="M23.182 5.31801H26.7375C27.6805 5.31801 28.585 5.69181 29.2518 6.35672C29.9186 7.02162 30.2931 7.92315 30.2931 8.86346V33.6816C30.2931 34.622 29.9186 35.5239 29.2518 36.1888C28.585 36.8537 27.6805 37.2271 26.7375 37.2271H5.40419C4.4612 37.2271 3.55666 36.8537 2.88987 36.1888C2.22307 35.5239 1.84863 34.622 1.84863 33.6816V8.86346C1.84863 7.92315 2.22307 7.02162 2.88987 6.35672C3.55666 5.69181 4.4612 5.31801 5.40419 5.31801H8.95974" fill="#F6F5ED"/>
<path d="M23.182 5.31801H26.7375C27.6805 5.31801 28.585 5.69181 29.2518 6.35672C29.9186 7.02162 30.2931 7.92315 30.2931 8.86346V33.6816C30.2931 34.622 29.9186 35.5239 29.2518 36.1888C28.585 36.8537 27.6805 37.2271 26.7375 37.2271H5.40419C4.4612 37.2271 3.55666 36.8537 2.88987 36.1888C2.22307 35.5239 1.84863 34.622 1.84863 33.6816V8.86346C1.84863 7.92315 2.22307 7.02162 2.88987 6.35672C3.55666 5.69181 4.4612 5.31801 5.40419 5.31801H8.95974" stroke="#222223" stroke-width="2" stroke-linejoin="round"/>
<path d="M12.5155 8.86346C11.5725 8.86346 10.668 8.49009 10.0012 7.82519C9.3344 7.16029 8.95996 6.25832 8.95996 5.31801C8.95996 4.37769 9.3344 3.47616 10.0012 2.81126C10.668 2.14636 11.5725 1.77255 12.5155 1.77255H19.6266C20.5696 1.77255 21.4742 2.14636 22.141 2.81126C22.8077 3.47616 23.1822 4.37769 23.1822 5.31801C23.1822 6.25832 22.8077 7.16029 22.141 7.82519C21.4742 8.49009 20.5696 8.86346 19.6266 8.86346H12.5155Z" fill="#F6F5ED" stroke="#222223" stroke-width="2" stroke-linejoin="round"/>
<path d="M7.11133 15.9545H24.8891" stroke="#222223" stroke-width="2" stroke-linejoin="round"/>
<path d="M7.11133 23.0455H19.5558" stroke="#222223" stroke-width="2" stroke-linejoin="round"/>
</g>
<defs>
<clipPath id="clip0_785_431">
<rect width="32" height="39" fill="white"/>
</clipPath>
</defs>
</svg>
