<?xml version="1.0" encoding="UTF-8" standalone="no"?><svg width="38" height="34" viewBox="0 0 38 34" fill="none" xmlns="http://www.w3.org/2000/svg">
<path d="M31.2222 11.6667C32.6367 11.6667 33.9933 11.1048 34.9935 10.1046C35.9937 9.10441 36.5556 7.74782 36.5556 6.33333C36.5556 4.91885 35.9937 3.56226 34.9935 2.56207C33.9933 1.56187 32.6367 1 31.2222 1H6.33333C4.91885 1 3.56226 1.56187 2.56207 2.56207C1.56187 3.56226 1 4.91885 1 6.33333C1 7.74782 1.56187 9.10441 2.56207 10.1046C3.56226 11.1048 4.91885 11.6667 6.33333 11.6667H31.2222Z" fill="#F6F5ED" stroke="#222223" stroke-width="2" stroke-miterlimit="10"/>
<path d="M1 20.5555H17" stroke="#222223" stroke-width="2" stroke-miterlimit="10"/>
<path d="M1 29.4445H17" stroke="#222223" stroke-width="2" stroke-miterlimit="10"/>
<path d="M29.4441 33C33.3715 33 36.5552 29.8162 36.5552 25.8889C36.5552 21.9615 33.3715 18.7777 29.4441 18.7777C25.5168 18.7777 22.333 21.9615 22.333 25.8889C22.333 29.8162 25.5168 33 29.4441 33Z" fill="#F6F5ED" stroke="#222223" stroke-width="2" stroke-miterlimit="10"/>
</svg>
